<?xml version="1.0" standalone="no"?>
<!DOCTYPE svg PUBLIC "-//W3C//DTD SVG 20010904//EN"
 "http://www.w3.org/TR/2001/REC-SVG-20010904/DTD/svg10.dtd">
<svg version="1.0" xmlns="http://www.w3.org/2000/svg"
 width="512.000000pt" height="512.000000pt" viewBox="0 0 512.000000 512.000000"
 preserveAspectRatio="xMidYMid meet">

<g transform="translate(0.000000,512.000000) scale(0.100000,-0.100000)"
fill="#000000" stroke="none">
<path d="M3750 2937 c0 -214 -335 -526 -682 -636 -147 -46 -255 -63 -449 -68
-328 -10 -618 48 -849 168 -199 103 -381 296 -442 466 -13 35 -26 63 -30 63
-12 0 -118 -168 -178 -283 -180 -344 -258 -672 -230 -978 62 -693 435 -1189
1042 -1387 241 -79 455 -107 760 -100 154 4 229 11 311 27 478 97 847 371
1060 789 114 223 177 480 177 727 0 293 -125 706 -306 1004 -44 71 -170 241
-180 241 -2 0 -4 -15 -4 -33z m-2349 -523 c41 -37 114 -94 163 -127 48 -33 93
-71 99 -84 15 -33 -3 -64 -107 -198 -104 -132 -148 -215 -227 -423 -94 -247
-128 -275 -184 -147 -47 106 -60 195 -60 415 1 195 2 210 28 295 53 171 149
335 197 335 10 0 51 -30 91 -66z"/>
</g>
</svg>
